<svg xmlns="http://www.w3.org/2000/svg" data-name="Layer 1" viewBox="0 0 100 125" x="0px" y="0px"><title>camping icons</title><path d="M80.58,75.2H73.1a.5.5,0,0,1,0-1h6.51L75.22,68a.51.51,0,0,1,0-.52.5.5,0,0,1,.45-.27h1.51l-4.4-6.17a.49.49,0,0,1,0-.52.49.49,0,0,1,.44-.27h1.51l-4-5.59-4,5.59H68.2a.52.52,0,0,1,.44.27.49.49,0,0,1,0,.52l-4.39,6.17h1.51a.49.49,0,0,1,.44.27.51.51,0,0,1,0,.52l-4.4,6.16h6.51a.5.5,0,0,1,0,1H60.76a.51.51,0,0,1-.44-.27.49.49,0,0,1,0-.52l4.39-6.16H63.24A.49.49,0,0,1,62.8,68a.47.47,0,0,1,0-.51l4.4-6.17H65.72a.5.5,0,0,1-.45-.27.51.51,0,0,1,0-.52l5-7a.52.52,0,0,1,.81,0l5,7a.51.51,0,0,1,0,.52.49.49,0,0,1-.44.27H74.12l4.39,6.17a.47.47,0,0,1,0,.51.51.51,0,0,1-.44.28H76.6L81,74.41a.51.51,0,0,1,0,.52A.52.52,0,0,1,80.58,75.2Z"/><path d="M66.19,55H67.7a.51.51,0,0,0,.44-.28.47.47,0,0,0,0-.51l-4.95-7a.53.53,0,0,0-.82,0l-4.95,7a.47.47,0,0,0,0,.51.51.51,0,0,0,.45.28h1.5L54.9,61.17a.51.51,0,0,0,0,.52.52.52,0,0,0,.45.27h1.51l-4.4,6.16a.49.49,0,0,0,0,.52.48.48,0,0,0,.44.27h6.48a.5.5,0,0,0,0-1H53.8l4.39-6.16a.49.49,0,0,0,0-.52.5.5,0,0,0-.44-.27H56.28l4.39-6.16a.51.51,0,0,0,0-.52.5.5,0,0,0-.45-.27h-1.5l4-5.6,4,5.6H65.22a.5.5,0,0,0-.45.27.51.51,0,0,0,0,.52l1.87,2.62.61-.86Z"/><path d="M51.57,74.47,40.76,56.71a.43.43,0,0,0-.15-.15l0,0a.6.6,0,0,0-.22-.06H22.74a.51.51,0,0,0-.43.24L11.51,74.47a.49.49,0,0,0,0,.51.48.48,0,0,0,.43.25H51.14a.5.5,0,0,0,.44-.25A.49.49,0,0,0,51.57,74.47ZM23,57.47H39.45L29.25,74.23H12.82Zm7.4,16.76,9.42-15.48V74.23Zm10.42,0V58.75l9.41,15.48Z"/><path d="M50,29.33a.5.5,0,0,1-.5-.5v-16a.5.5,0,0,1,1,0v16A.5.5,0,0,1,50,29.33Z"/><path d="M84.88,48.33h-16a.51.51,0,0,1-.5-.5.5.5,0,0,1,.5-.5h16a.5.5,0,0,1,.5.5A.5.5,0,0,1,84.88,48.33Z"/><path d="M67.84,41.12a.5.5,0,0,1-.15-1l16.45-5.36a.49.49,0,0,1,.63.32.5.5,0,0,1-.32.63L68,41.09A.45.45,0,0,1,67.84,41.12Z"/><path d="M32.16,41.12a.41.41,0,0,1-.16,0L15.55,35.73a.49.49,0,0,1-.32-.63.49.49,0,0,1,.63-.32l16.45,5.36a.5.5,0,0,1-.15,1Z"/><path d="M63.17,35a.5.5,0,0,1-.35-.85L74.16,22.81a.5.5,0,0,1,.71,0,.51.51,0,0,1,0,.71L63.53,34.86A.5.5,0,0,1,63.17,35Z"/><path d="M35.46,35.75a.54.54,0,0,1-.36-.14L23.76,24.26a.5.5,0,0,1,0-.7.5.5,0,0,1,.71,0L35.81,34.9a.51.51,0,0,1,0,.71A.54.54,0,0,1,35.46,35.75Z"/><path d="M32.16,48.33h-16a.5.5,0,0,1-.5-.5.5.5,0,0,1,.5-.5h16a.5.5,0,0,1,.5.5A.51.51,0,0,1,32.16,48.33Z"/><path d="M56.92,31a.52.52,0,0,1-.21,0,.5.5,0,0,1-.25-.66l6.83-15a.51.51,0,0,1,.66-.25.49.49,0,0,1,.25.66l-6.83,15A.48.48,0,0,1,56.92,31Z"/><path d="M41.79,31a.49.49,0,0,1-.46-.29l-6.83-15a.5.5,0,0,1,.91-.41l6.83,15A.5.5,0,0,1,42,31,.45.45,0,0,1,41.79,31Z"/><path d="M68.38,44.77a.51.51,0,0,1-.5-.44.5.5,0,0,1,.44-.56l6.86-.85a.5.5,0,1,1,.13,1l-6.87.85Z"/><path d="M77.93,43.61a.5.5,0,0,1-.07-1l3.33-.46a.5.5,0,0,1,.14,1L78,43.6Z"/><path d="M65.57,37.55a.5.5,0,0,1-.25-.93l4.75-2.7a.5.5,0,0,1,.68.19.49.49,0,0,1-.18.68l-4.75,2.7A.57.57,0,0,1,65.57,37.55Z"/><path d="M73.11,33.3a.5.5,0,0,1-.24-.93L77.13,30a.5.5,0,1,1,.49.87l-4.26,2.42A.54.54,0,0,1,73.11,33.3Z"/><path d="M59.75,32.76a.53.53,0,0,1-.29-.1.51.51,0,0,1-.11-.7l5.05-6.87a.51.51,0,0,1,.7-.1.5.5,0,0,1,.11.7l-5,6.86A.49.49,0,0,1,59.75,32.76Z"/><path d="M53.41,30.08H53.3a.49.49,0,0,1-.38-.59l.95-4.63a.49.49,0,0,1,.59-.39.5.5,0,0,1,.39.59l-1,4.63A.5.5,0,0,1,53.41,30.08Z"/><path d="M55,22.63h-.1a.5.5,0,0,1-.39-.59l1.2-5.83a.49.49,0,0,1,.59-.39.51.51,0,0,1,.39.59l-1.2,5.83A.51.51,0,0,1,55,22.63Z"/><path d="M46,30.08a.49.49,0,0,1-.49-.38l-2-8.37a.5.5,0,0,1,1-.23l2,8.37a.49.49,0,0,1-.37.6Z"/><path d="M38.37,32.76a.5.5,0,0,1-.4-.21l-3.15-4.28a.51.51,0,0,1,.11-.7.5.5,0,0,1,.7.11L38.77,32a.5.5,0,0,1-.1.7A.57.57,0,0,1,38.37,32.76Z"/><path d="M33.4,38.43a.46.46,0,0,1-.23,0l-7.53-3.84a.5.5,0,0,1-.21-.67.49.49,0,0,1,.67-.22l7.53,3.84a.5.5,0,0,1-.23.94Z"/><path d="M31.54,44.57h-.05L28,44.23a.5.5,0,0,1-.45-.54.49.49,0,0,1,.55-.45l3.51.33a.5.5,0,0,1,.45.54A.52.52,0,0,1,31.54,44.57Z"/><path d="M66.71,23.5a.47.47,0,0,1-.3-.1.51.51,0,0,1-.11-.7l1.61-2.18a.5.5,0,0,1,.7-.11.51.51,0,0,1,.11.7L67.11,23.3A.51.51,0,0,1,66.71,23.5Z"/><path d="M43.48,19a.49.49,0,0,1-.49-.38l-.64-2.76a.49.49,0,0,1,.37-.6.5.5,0,0,1,.6.37L44,18.36a.49.49,0,0,1-.37.6Z"/><path d="M33.33,26.09a.49.49,0,0,1-.4-.21l-3-4.12a.5.5,0,0,1,.8-.6l3,4.13a.5.5,0,0,1-.4.8Z"/><path d="M22.91,33a.48.48,0,0,1-.23-.05L19.4,31.3a.5.5,0,0,1-.22-.67.5.5,0,0,1,.67-.22l3.29,1.68a.51.51,0,0,1,.22.67A.51.51,0,0,1,22.91,33Z"/><path d="M24.85,44H24.8l-7.28-.69a.5.5,0,0,1,.09-1l7.28.69a.5.5,0,0,1,.45.55A.49.49,0,0,1,24.85,44Z"/><path d="M66.07,47.83a16.07,16.07,0,0,0-32.14,0,15.87,15.87,0,0,0,.46,3.73l1,0a14.71,14.71,0,0,1-.5-3.77,15.07,15.07,0,1,1,30.14,0c0,.22,0,.44,0,.66l.91,1.28A15.67,15.67,0,0,0,66.07,47.83Z"/><text x="0" y="115" fill="#000000" font-size="5px" font-weight="bold" font-family="'Helvetica Neue', Helvetica, Arial-Unicode, Arial, Sans-serif">Created by Caitlin George</text><text x="0" y="120" fill="#000000" font-size="5px" font-weight="bold" font-family="'Helvetica Neue', Helvetica, Arial-Unicode, Arial, Sans-serif">from the Noun Project</text></svg>

